<?xml version="1.0" encoding="utf-8"?>
<!-- Generator: Adobe Illustrator 21.0.0, SVG Export Plug-In . SVG Version: 6.00 Build 0)  -->
<svg version="1.1" id="레이어_1" xmlns="http://www.w3.org/2000/svg" xmlns:xlink="http://www.w3.org/1999/xlink" x="0px"
	 y="0px" viewBox="0 0 15 15" style="enable-background:new 0 0 15 15;" xml:space="preserve">
<style type="text/css">
	.st0{fill:#999999;}
</style>
<g>
	<path class="st0" d="M6.8,15.4l-9.2-9.2c-0.4-0.4-0.4-1,0-1.4l0,0c0.4-0.4,1-0.4,1.4,0L8.2,14c0.4,0.4,0.4,1,0,1.4l0,0
		C7.8,15.8,7.2,15.8,6.8,15.4z"/>
	<path class="st0" d="M6.8,14L16,4.8c0.4-0.4,1-0.4,1.4,0l0,0c0.4,0.4,0.4,1,0,1.4l-9.2,9.2c-0.4,0.4-1,0.4-1.4,0l0,0
		C6.4,15,6.4,14.4,6.8,14z"/>
</g>
</svg>
